<mxfile host="65bd71144e">
    <diagram id="C5RBs43oDa-KdzZeNtuy" name="Page-1">
        <mxGraphModel dx="950" dy="-641" grid="1" gridSize="10" guides="1" tooltips="1" connect="1" arrows="1" fold="1" page="1" pageScale="1" pageWidth="1000" pageHeight="1169" math="0" shadow="0">
            <root>
                <mxCell id="WIyWlLk6GJQsqaUBKTNV-0"/>
                <mxCell id="WIyWlLk6GJQsqaUBKTNV-1" parent="WIyWlLk6GJQsqaUBKTNV-0"/>
                <mxCell id="q7pYmEnO_Y2Cruu0NZZ4-15" value="«enumeration»&#10; PlayerNumber" style="swimlane;fontStyle=1;align=center;verticalAlign=top;childLayout=stackLayout;horizontal=1;startSize=40;horizontalStack=0;resizeParent=1;resizeLast=0;collapsible=1;marginBottom=0;rounded=0;shadow=0;strokeWidth=1;" parent="WIyWlLk6GJQsqaUBKTNV-1" vertex="1">
                    <mxGeometry x="650" y="2105" width="160" height="105" as="geometry">
                        <mxRectangle x="120" y="360" width="160" height="26" as="alternateBounds"/>
                    </mxGeometry>
                </mxCell>
                <mxCell id="q7pYmEnO_Y2Cruu0NZZ4-16" value="1" style="text;align=left;verticalAlign=top;spacingLeft=4;spacingRight=4;overflow=hidden;rotatable=0;points=[[0,0.5],[1,0.5]];portConstraint=eastwest;rounded=0;" parent="q7pYmEnO_Y2Cruu0NZZ4-15" vertex="1">
                    <mxGeometry y="40" width="160" height="26" as="geometry"/>
                </mxCell>
                <mxCell id="q7pYmEnO_Y2Cruu0NZZ4-17" value="2" style="text;align=left;verticalAlign=top;spacingLeft=4;spacingRight=4;overflow=hidden;rotatable=0;points=[[0,0.5],[1,0.5]];portConstraint=eastwest;rounded=0;shadow=0;html=0;" parent="q7pYmEnO_Y2Cruu0NZZ4-15" vertex="1">
                    <mxGeometry y="66" width="160" height="26" as="geometry"/>
                </mxCell>
                <mxCell id="q7pYmEnO_Y2Cruu0NZZ4-18" value="" style="line;html=1;strokeWidth=1;align=left;verticalAlign=middle;spacingTop=-1;spacingLeft=3;spacingRight=3;rotatable=0;labelPosition=right;points=[];portConstraint=eastwest;rounded=0;" parent="q7pYmEnO_Y2Cruu0NZZ4-15" vertex="1">
                    <mxGeometry y="92" width="160" height="8" as="geometry"/>
                </mxCell>
                <mxCell id="q7pYmEnO_Y2Cruu0NZZ4-19" value="«enumeration»&#10;FieldType" style="swimlane;fontStyle=1;align=center;verticalAlign=top;childLayout=stackLayout;horizontal=1;startSize=40;horizontalStack=0;resizeParent=1;resizeParentMax=0;resizeLast=0;collapsible=1;marginBottom=0;rounded=0;" parent="WIyWlLk6GJQsqaUBKTNV-1" vertex="1">
                    <mxGeometry x="650" y="1900" width="160" height="100" as="geometry"/>
                </mxCell>
                <mxCell id="q7pYmEnO_Y2Cruu0NZZ4-20" value="0" style="text;strokeColor=none;fillColor=none;align=left;verticalAlign=top;spacingLeft=4;spacingRight=4;overflow=hidden;rotatable=0;points=[[0,0.5],[1,0.5]];portConstraint=eastwest;rounded=0;" parent="q7pYmEnO_Y2Cruu0NZZ4-19" vertex="1">
                    <mxGeometry y="40" width="160" height="26" as="geometry"/>
                </mxCell>
                <mxCell id="q7pYmEnO_Y2Cruu0NZZ4-21" value="PlayerNumber" style="text;strokeColor=none;fillColor=none;align=left;verticalAlign=top;spacingLeft=4;spacingRight=4;overflow=hidden;rotatable=0;points=[[0,0.5],[1,0.5]];portConstraint=eastwest;rounded=0;" parent="q7pYmEnO_Y2Cruu0NZZ4-19" vertex="1">
                    <mxGeometry y="66" width="160" height="26" as="geometry"/>
                </mxCell>
                <mxCell id="q7pYmEnO_Y2Cruu0NZZ4-22" value="" style="line;strokeWidth=1;fillColor=none;align=left;verticalAlign=middle;spacingTop=-1;spacingLeft=3;spacingRight=3;rotatable=0;labelPosition=right;points=[];portConstraint=eastwest;strokeColor=inherit;rounded=0;" parent="q7pYmEnO_Y2Cruu0NZZ4-19" vertex="1">
                    <mxGeometry y="92" width="160" height="8" as="geometry"/>
                </mxCell>
                <mxCell id="q7pYmEnO_Y2Cruu0NZZ4-23" value="Use" style="endArrow=open;endSize=12;dashed=1;html=1;edgeStyle=orthogonalEdgeStyle;rounded=0;" parent="WIyWlLk6GJQsqaUBKTNV-1" source="87" target="79" edge="1">
                    <mxGeometry width="160" relative="1" as="geometry">
                        <mxPoint x="390" y="2221" as="sourcePoint"/>
                        <mxPoint x="550" y="2221" as="targetPoint"/>
                        <Array as="points">
                            <mxPoint x="210" y="2040"/>
                            <mxPoint x="210" y="2040"/>
                        </Array>
                    </mxGeometry>
                </mxCell>
                <mxCell id="q7pYmEnO_Y2Cruu0NZZ4-24" value="9" style="endArrow=open;endSize=12;html=1;edgeStyle=elbowEdgeStyle;rounded=1;" parent="WIyWlLk6GJQsqaUBKTNV-1" source="79" target="q7pYmEnO_Y2Cruu0NZZ4-19" edge="1">
                    <mxGeometry x="0.9535" y="-11" width="160" relative="1" as="geometry">
                        <mxPoint x="390" y="2221" as="sourcePoint"/>
                        <mxPoint x="550" y="2221" as="targetPoint"/>
                        <Array as="points">
                            <mxPoint x="550" y="1906"/>
                            <mxPoint x="580" y="1916"/>
                        </Array>
                        <mxPoint as="offset"/>
                    </mxGeometry>
                </mxCell>
                <mxCell id="19" value="state" style="edgeLabel;html=1;align=center;verticalAlign=middle;resizable=0;points=[];" parent="q7pYmEnO_Y2Cruu0NZZ4-24" vertex="1" connectable="0">
                    <mxGeometry x="-0.8744" y="-4" relative="1" as="geometry">
                        <mxPoint x="-7" y="6" as="offset"/>
                    </mxGeometry>
                </mxCell>
                <mxCell id="q7pYmEnO_Y2Cruu0NZZ4-25" value="«enumeration»&#10;WinnerStatus" style="swimlane;fontStyle=1;align=center;verticalAlign=top;childLayout=stackLayout;horizontal=1;startSize=38;horizontalStack=0;resizeParent=1;resizeParentMax=0;resizeLast=0;collapsible=1;marginBottom=0;fontFamily=Helvetica;fontSize=12;fontColor=default;rounded=0;" parent="WIyWlLk6GJQsqaUBKTNV-1" vertex="1">
                    <mxGeometry x="430" y="2140.5" width="160" height="124" as="geometry"/>
                </mxCell>
                <mxCell id="q7pYmEnO_Y2Cruu0NZZ4-26" value="PlayerNumber" style="text;strokeColor=none;fillColor=none;align=left;verticalAlign=top;spacingLeft=4;spacingRight=4;overflow=hidden;rotatable=0;points=[[0,0.5],[1,0.5]];portConstraint=eastwest;fontFamily=Helvetica;fontSize=12;fontColor=default;rounded=0;" parent="q7pYmEnO_Y2Cruu0NZZ4-25" vertex="1">
                    <mxGeometry y="38" width="160" height="26" as="geometry"/>
                </mxCell>
                <mxCell id="q7pYmEnO_Y2Cruu0NZZ4-27" value="-1" style="text;strokeColor=none;fillColor=none;align=left;verticalAlign=top;spacingLeft=4;spacingRight=4;overflow=hidden;rotatable=0;points=[[0,0.5],[1,0.5]];portConstraint=eastwest;fontFamily=Helvetica;fontSize=12;fontColor=default;rounded=0;" parent="q7pYmEnO_Y2Cruu0NZZ4-25" vertex="1">
                    <mxGeometry y="64" width="160" height="26" as="geometry"/>
                </mxCell>
                <mxCell id="q7pYmEnO_Y2Cruu0NZZ4-28" value="null" style="text;strokeColor=none;fillColor=none;align=left;verticalAlign=top;spacingLeft=4;spacingRight=4;overflow=hidden;rotatable=0;points=[[0,0.5],[1,0.5]];portConstraint=eastwest;fontFamily=Helvetica;fontSize=12;fontColor=default;rounded=0;" parent="q7pYmEnO_Y2Cruu0NZZ4-25" vertex="1">
                    <mxGeometry y="90" width="160" height="26" as="geometry"/>
                </mxCell>
                <mxCell id="q7pYmEnO_Y2Cruu0NZZ4-29" value="" style="line;strokeWidth=1;fillColor=none;align=left;verticalAlign=middle;spacingTop=-1;spacingLeft=3;spacingRight=3;rotatable=0;labelPosition=right;points=[];portConstraint=eastwest;strokeColor=inherit;fontFamily=Helvetica;fontSize=11;fontColor=default;rounded=0;" parent="q7pYmEnO_Y2Cruu0NZZ4-25" vertex="1">
                    <mxGeometry y="116" width="160" height="8" as="geometry"/>
                </mxCell>
                <mxCell id="q7pYmEnO_Y2Cruu0NZZ4-30" value="Use" style="endArrow=open;endSize=12;dashed=1;html=1;rounded=1;labelBackgroundColor=default;strokeColor=default;fontFamily=Helvetica;fontSize=11;fontColor=default;shape=connector;edgeStyle=elbowEdgeStyle;" parent="WIyWlLk6GJQsqaUBKTNV-1" source="87" target="q7pYmEnO_Y2Cruu0NZZ4-25" edge="1">
                    <mxGeometry width="160" relative="1" as="geometry">
                        <mxPoint x="390" y="2221" as="sourcePoint"/>
                        <mxPoint x="550" y="2221" as="targetPoint"/>
                        <Array as="points">
                            <mxPoint x="390" y="2174"/>
                        </Array>
                    </mxGeometry>
                </mxCell>
                <mxCell id="q7pYmEnO_Y2Cruu0NZZ4-32" value="winner" style="endArrow=open;endSize=12;html=1;rounded=0;labelBackgroundColor=default;strokeColor=default;fontFamily=Helvetica;fontSize=11;fontColor=default;shape=connector;" parent="WIyWlLk6GJQsqaUBKTNV-1" source="q7pYmEnO_Y2Cruu0NZZ4-110" target="q7pYmEnO_Y2Cruu0NZZ4-25" edge="1">
                    <mxGeometry x="-0.6755" y="23" width="160" relative="1" as="geometry">
                        <mxPoint x="520.0000000000002" y="2331" as="sourcePoint"/>
                        <mxPoint x="690" y="2431" as="targetPoint"/>
                        <mxPoint as="offset"/>
                    </mxGeometry>
                </mxCell>
                <mxCell id="q7pYmEnO_Y2Cruu0NZZ4-34" value="Isomorphism" style="swimlane;fontStyle=1;align=center;verticalAlign=top;childLayout=stackLayout;horizontal=1;startSize=26;horizontalStack=0;resizeParent=1;resizeParentMax=0;resizeLast=0;collapsible=1;marginBottom=0;rounded=0;" parent="WIyWlLk6GJQsqaUBKTNV-1" vertex="1">
                    <mxGeometry x="130" y="1630" width="190" height="86" as="geometry"/>
                </mxCell>
                <mxCell id="q7pYmEnO_Y2Cruu0NZZ4-35" value="transformation: [[[number]]]" style="text;strokeColor=none;fillColor=none;align=left;verticalAlign=top;spacingLeft=4;spacingRight=4;overflow=hidden;rotatable=0;points=[[0,0.5],[1,0.5]];portConstraint=eastwest;rounded=0;" parent="q7pYmEnO_Y2Cruu0NZZ4-34" vertex="1">
                    <mxGeometry y="26" width="190" height="26" as="geometry"/>
                </mxCell>
                <mxCell id="q7pYmEnO_Y2Cruu0NZZ4-36" value="" style="line;strokeWidth=1;fillColor=none;align=left;verticalAlign=middle;spacingTop=-1;spacingLeft=3;spacingRight=3;rotatable=0;labelPosition=right;points=[];portConstraint=eastwest;strokeColor=inherit;rounded=0;" parent="q7pYmEnO_Y2Cruu0NZZ4-34" vertex="1">
                    <mxGeometry y="52" width="190" height="8" as="geometry"/>
                </mxCell>
                <mxCell id="q7pYmEnO_Y2Cruu0NZZ4-37" value="apply([[number]]): [[number]]" style="text;strokeColor=none;fillColor=none;align=left;verticalAlign=top;spacingLeft=4;spacingRight=4;overflow=hidden;rotatable=0;points=[[0,0.5],[1,0.5]];portConstraint=eastwest;rounded=0;" parent="q7pYmEnO_Y2Cruu0NZZ4-34" vertex="1">
                    <mxGeometry y="60" width="190" height="26" as="geometry"/>
                </mxCell>
                <mxCell id="q7pYmEnO_Y2Cruu0NZZ4-39" value="IsomorphismGroup" style="swimlane;fontStyle=1;align=center;verticalAlign=top;childLayout=stackLayout;horizontal=1;startSize=26;horizontalStack=0;resizeParent=1;resizeParentMax=0;resizeLast=0;collapsible=1;marginBottom=0;rounded=0;" parent="WIyWlLk6GJQsqaUBKTNV-1" vertex="1">
                    <mxGeometry x="375" y="1617" width="300" height="112" as="geometry"/>
                </mxCell>
                <mxCell id="q7pYmEnO_Y2Cruu0NZZ4-48" value="" style="line;strokeWidth=1;fillColor=none;align=left;verticalAlign=middle;spacingTop=-1;spacingLeft=3;spacingRight=3;rotatable=0;labelPosition=right;points=[];portConstraint=eastwest;strokeColor=inherit;rounded=0;" parent="q7pYmEnO_Y2Cruu0NZZ4-39" vertex="1">
                    <mxGeometry y="26" width="300" height="8" as="geometry"/>
                </mxCell>
                <mxCell id="q7pYmEnO_Y2Cruu0NZZ4-50" value="getGameBoardEquiv(GameBoard): Set&lt;number&gt;" style="text;strokeColor=none;fillColor=none;align=left;verticalAlign=top;spacingLeft=4;spacingRight=4;overflow=hidden;rotatable=0;points=[[0,0.5],[1,0.5]];portConstraint=eastwest;rounded=0;" parent="q7pYmEnO_Y2Cruu0NZZ4-39" vertex="1">
                    <mxGeometry y="34" width="300" height="26" as="geometry"/>
                </mxCell>
                <mxCell id="50" value="getRepresentativeOfGameBoards([number]): number" style="text;strokeColor=none;fillColor=none;align=left;verticalAlign=top;spacingLeft=4;spacingRight=4;overflow=hidden;rotatable=0;points=[[0,0.5],[1,0.5]];portConstraint=eastwest;" parent="q7pYmEnO_Y2Cruu0NZZ4-39" vertex="1">
                    <mxGeometry y="60" width="300" height="26" as="geometry"/>
                </mxCell>
                <mxCell id="51" value="getNormalFormOfGameBoard(GameBoard): number" style="text;strokeColor=none;fillColor=none;align=left;verticalAlign=top;spacingLeft=4;spacingRight=4;overflow=hidden;rotatable=0;points=[[0,0.5],[1,0.5]];portConstraint=eastwest;" parent="q7pYmEnO_Y2Cruu0NZZ4-39" vertex="1">
                    <mxGeometry y="86" width="300" height="26" as="geometry"/>
                </mxCell>
                <mxCell id="q7pYmEnO_Y2Cruu0NZZ4-71" value="AIPlayer" style="swimlane;fontStyle=1;align=center;verticalAlign=top;childLayout=stackLayout;horizontal=1;startSize=26;horizontalStack=0;resizeParent=1;resizeParentMax=0;resizeLast=0;collapsible=1;marginBottom=0;" parent="WIyWlLk6GJQsqaUBKTNV-1" vertex="1">
                    <mxGeometry x="105" y="1390" width="270" height="110" as="geometry"/>
                </mxCell>
                <mxCell id="76" value="randomizer: Randomizer" style="text;strokeColor=none;fillColor=none;align=left;verticalAlign=top;spacingLeft=4;spacingRight=4;overflow=hidden;rotatable=0;points=[[0,0.5],[1,0.5]];portConstraint=eastwest;" vertex="1" parent="q7pYmEnO_Y2Cruu0NZZ4-71">
                    <mxGeometry y="26" width="270" height="26" as="geometry"/>
                </mxCell>
                <mxCell id="q7pYmEnO_Y2Cruu0NZZ4-73" value="weights: Map&lt;number, Map&lt;number,number&gt;&gt;" style="text;strokeColor=none;fillColor=none;align=left;verticalAlign=top;spacingLeft=4;spacingRight=4;overflow=hidden;rotatable=0;points=[[0,0.5],[1,0.5]];portConstraint=eastwest;" parent="q7pYmEnO_Y2Cruu0NZZ4-71" vertex="1">
                    <mxGeometry y="52" width="270" height="24" as="geometry"/>
                </mxCell>
                <mxCell id="q7pYmEnO_Y2Cruu0NZZ4-74" value="" style="line;strokeWidth=1;fillColor=none;align=left;verticalAlign=middle;spacingTop=-1;spacingLeft=3;spacingRight=3;rotatable=0;labelPosition=right;points=[];portConstraint=eastwest;strokeColor=inherit;" parent="q7pYmEnO_Y2Cruu0NZZ4-71" vertex="1">
                    <mxGeometry y="76" width="270" height="8" as="geometry"/>
                </mxCell>
                <mxCell id="53" value="initializeWeights(number): void" style="text;strokeColor=none;fillColor=none;align=left;verticalAlign=top;spacingLeft=4;spacingRight=4;overflow=hidden;rotatable=0;points=[[0,0.5],[1,0.5]];portConstraint=eastwest;" parent="q7pYmEnO_Y2Cruu0NZZ4-71" vertex="1">
                    <mxGeometry y="84" width="270" height="26" as="geometry"/>
                </mxCell>
                <mxCell id="q7pYmEnO_Y2Cruu0NZZ4-77" value="«Interface»&#10;Player" style="swimlane;fontStyle=3;align=center;verticalAlign=top;childLayout=stackLayout;horizontal=1;startSize=40;horizontalStack=0;resizeParent=1;resizeParentMax=0;resizeLast=0;collapsible=1;marginBottom=0;" parent="WIyWlLk6GJQsqaUBKTNV-1" vertex="1">
                    <mxGeometry x="320" y="1200" width="280" height="100" as="geometry"/>
                </mxCell>
                <mxCell id="q7pYmEnO_Y2Cruu0NZZ4-78" value="" style="line;strokeWidth=1;fillColor=none;align=left;verticalAlign=middle;spacingTop=-1;spacingLeft=3;spacingRight=3;rotatable=0;labelPosition=right;points=[];portConstraint=eastwest;strokeColor=inherit;" parent="q7pYmEnO_Y2Cruu0NZZ4-77" vertex="1">
                    <mxGeometry y="40" width="280" height="8" as="geometry"/>
                </mxCell>
                <mxCell id="q7pYmEnO_Y2Cruu0NZZ4-79" value="isAI(): boolean" style="text;strokeColor=none;fillColor=none;align=left;verticalAlign=top;spacingLeft=4;spacingRight=4;overflow=hidden;rotatable=0;points=[[0,0.5],[1,0.5]];portConstraint=eastwest;fontStyle=2" parent="q7pYmEnO_Y2Cruu0NZZ4-77" vertex="1">
                    <mxGeometry y="48" width="280" height="26" as="geometry"/>
                </mxCell>
                <mxCell id="q7pYmEnO_Y2Cruu0NZZ4-75" value="makeMove(): void" style="text;strokeColor=none;fillColor=none;align=left;verticalAlign=top;spacingLeft=4;spacingRight=4;overflow=hidden;rotatable=0;points=[[0,0.5],[1,0.5]];portConstraint=eastwest;fontStyle=2" parent="q7pYmEnO_Y2Cruu0NZZ4-77" vertex="1">
                    <mxGeometry y="74" width="280" height="26" as="geometry"/>
                </mxCell>
                <mxCell id="q7pYmEnO_Y2Cruu0NZZ4-80" value="UserPlayer" style="swimlane;fontStyle=1;align=center;verticalAlign=top;childLayout=stackLayout;horizontal=1;startSize=26;horizontalStack=0;resizeParent=1;resizeParentMax=0;resizeLast=0;collapsible=1;marginBottom=0;labelBackgroundColor=none;fillStyle=auto;" parent="WIyWlLk6GJQsqaUBKTNV-1" vertex="1">
                    <mxGeometry x="574.5" y="1441" width="160" height="34" as="geometry"/>
                </mxCell>
                <mxCell id="q7pYmEnO_Y2Cruu0NZZ4-81" value="" style="line;strokeWidth=1;fillColor=none;align=left;verticalAlign=middle;spacingTop=-1;spacingLeft=3;spacingRight=3;rotatable=0;labelPosition=right;points=[];portConstraint=eastwest;strokeColor=inherit;labelBackgroundColor=#FF3333;fillStyle=auto;" parent="q7pYmEnO_Y2Cruu0NZZ4-80" vertex="1">
                    <mxGeometry y="26" width="160" height="8" as="geometry"/>
                </mxCell>
                <mxCell id="q7pYmEnO_Y2Cruu0NZZ4-98" value="GameSettings" style="swimlane;fontStyle=1;align=center;verticalAlign=top;childLayout=stackLayout;horizontal=1;startSize=26;horizontalStack=0;resizeParent=1;resizeParentMax=0;resizeLast=0;collapsible=1;marginBottom=0;" parent="WIyWlLk6GJQsqaUBKTNV-1" vertex="1">
                    <mxGeometry x="734.5" y="1643" width="231" height="60" as="geometry"/>
                </mxCell>
                <mxCell id="q7pYmEnO_Y2Cruu0NZZ4-106" value="" style="line;strokeWidth=1;fillColor=none;align=left;verticalAlign=middle;spacingTop=-1;spacingLeft=3;spacingRight=3;rotatable=0;labelPosition=right;points=[];portConstraint=eastwest;strokeColor=inherit;" parent="q7pYmEnO_Y2Cruu0NZZ4-98" vertex="1">
                    <mxGeometry y="26" width="231" height="8" as="geometry"/>
                </mxCell>
                <mxCell id="77" value="getPlayer(PlayerNumber): Player" style="text;strokeColor=none;fillColor=none;align=left;verticalAlign=top;spacingLeft=4;spacingRight=4;overflow=hidden;rotatable=0;points=[[0,0.5],[1,0.5]];portConstraint=eastwest;" vertex="1" parent="q7pYmEnO_Y2Cruu0NZZ4-98">
                    <mxGeometry y="34" width="231" height="26" as="geometry"/>
                </mxCell>
                <mxCell id="q7pYmEnO_Y2Cruu0NZZ4-110" value="GameHandler" style="swimlane;fontStyle=1;align=center;verticalAlign=top;childLayout=stackLayout;horizontal=1;startSize=26;horizontalStack=0;resizeParent=1;resizeParentMax=0;resizeLast=0;collapsible=1;marginBottom=0;labelBackgroundColor=default;fillStyle=auto;" parent="WIyWlLk6GJQsqaUBKTNV-1" vertex="1">
                    <mxGeometry x="415" y="2366" width="200" height="164" as="geometry"/>
                </mxCell>
                <mxCell id="q7pYmEnO_Y2Cruu0NZZ4-116" value="" style="line;strokeWidth=1;fillColor=none;align=left;verticalAlign=middle;spacingTop=-1;spacingLeft=3;spacingRight=3;rotatable=0;labelPosition=right;points=[];portConstraint=eastwest;strokeColor=inherit;" parent="q7pYmEnO_Y2Cruu0NZZ4-110" vertex="1">
                    <mxGeometry y="26" width="200" height="8" as="geometry"/>
                </mxCell>
                <mxCell id="q7pYmEnO_Y2Cruu0NZZ4-117" value="setup(): void" style="text;strokeColor=none;fillColor=none;align=left;verticalAlign=top;spacingLeft=4;spacingRight=4;overflow=hidden;rotatable=0;points=[[0,0.5],[1,0.5]];portConstraint=eastwest;" parent="q7pYmEnO_Y2Cruu0NZZ4-110" vertex="1">
                    <mxGeometry y="34" width="200" height="26" as="geometry"/>
                </mxCell>
                <mxCell id="q7pYmEnO_Y2Cruu0NZZ4-118" value="newGame(GameSettings): void" style="text;strokeColor=none;fillColor=none;align=left;verticalAlign=top;spacingLeft=4;spacingRight=4;overflow=hidden;rotatable=0;points=[[0,0.5],[1,0.5]];portConstraint=eastwest;" parent="q7pYmEnO_Y2Cruu0NZZ4-110" vertex="1">
                    <mxGeometry y="60" width="200" height="26" as="geometry"/>
                </mxCell>
                <mxCell id="q7pYmEnO_Y2Cruu0NZZ4-119" value="newGame(): void" style="text;strokeColor=none;fillColor=none;align=left;verticalAlign=top;spacingLeft=4;spacingRight=4;overflow=hidden;rotatable=0;points=[[0,0.5],[1,0.5]];portConstraint=eastwest;" parent="q7pYmEnO_Y2Cruu0NZZ4-110" vertex="1">
                    <mxGeometry y="86" width="200" height="26" as="geometry"/>
                </mxCell>
                <mxCell id="q7pYmEnO_Y2Cruu0NZZ4-107" value="performTurn(number, number): void" style="text;strokeColor=none;fillColor=none;align=left;verticalAlign=top;spacingLeft=4;spacingRight=4;overflow=hidden;rotatable=0;points=[[0,0.5],[1,0.5]];portConstraint=eastwest;" parent="q7pYmEnO_Y2Cruu0NZZ4-110" vertex="1">
                    <mxGeometry y="112" width="200" height="26" as="geometry"/>
                </mxCell>
                <mxCell id="64" value="createAI(): void" style="text;strokeColor=none;fillColor=none;align=left;verticalAlign=top;spacingLeft=4;spacingRight=4;overflow=hidden;rotatable=0;points=[[0,0.5],[1,0.5]];portConstraint=eastwest;" parent="q7pYmEnO_Y2Cruu0NZZ4-110" vertex="1">
                    <mxGeometry y="138" width="200" height="26" as="geometry"/>
                </mxCell>
                <mxCell id="q7pYmEnO_Y2Cruu0NZZ4-122" value="Use" style="endArrow=open;endSize=12;dashed=1;html=1;rounded=1;fontSize=12;edgeStyle=orthogonalEdgeStyle;" parent="WIyWlLk6GJQsqaUBKTNV-1" source="q7pYmEnO_Y2Cruu0NZZ4-98" target="q7pYmEnO_Y2Cruu0NZZ4-71" edge="1">
                    <mxGeometry x="0.3525" width="160" relative="1" as="geometry">
                        <mxPoint x="515" y="1500" as="sourcePoint"/>
                        <mxPoint x="675" y="1500" as="targetPoint"/>
                        <Array as="points">
                            <mxPoint x="780" y="1540"/>
                            <mxPoint x="240" y="1540"/>
                        </Array>
                        <mxPoint as="offset"/>
                    </mxGeometry>
                </mxCell>
                <mxCell id="q7pYmEnO_Y2Cruu0NZZ4-123" value="currentSettings" style="endArrow=open;endSize=12;html=1;rounded=1;fontSize=12;edgeStyle=orthogonalEdgeStyle;" parent="WIyWlLk6GJQsqaUBKTNV-1" source="q7pYmEnO_Y2Cruu0NZZ4-110" target="q7pYmEnO_Y2Cruu0NZZ4-98" edge="1">
                    <mxGeometry x="-0.9193" y="12" width="160" relative="1" as="geometry">
                        <mxPoint x="725" y="2600" as="sourcePoint"/>
                        <mxPoint x="835" y="1580" as="targetPoint"/>
                        <Array as="points">
                            <mxPoint x="910" y="2460"/>
                        </Array>
                        <mxPoint as="offset"/>
                    </mxGeometry>
                </mxCell>
                <mxCell id="q7pYmEnO_Y2Cruu0NZZ4-127" value="" style="endArrow=open;endFill=1;endSize=12;html=1;edgeStyle=elbowEdgeStyle;elbow=vertical;" parent="WIyWlLk6GJQsqaUBKTNV-1" source="q7pYmEnO_Y2Cruu0NZZ4-25" target="q7pYmEnO_Y2Cruu0NZZ4-15" edge="1">
                    <mxGeometry width="160" relative="1" as="geometry">
                        <mxPoint x="475" y="2186" as="sourcePoint"/>
                        <mxPoint x="635" y="2186" as="targetPoint"/>
                    </mxGeometry>
                </mxCell>
                <mxCell id="q7pYmEnO_Y2Cruu0NZZ4-128" value="" style="endArrow=open;endFill=1;endSize=12;html=1;" parent="WIyWlLk6GJQsqaUBKTNV-1" source="q7pYmEnO_Y2Cruu0NZZ4-19" target="q7pYmEnO_Y2Cruu0NZZ4-15" edge="1">
                    <mxGeometry width="160" relative="1" as="geometry">
                        <mxPoint x="525" y="2081" as="sourcePoint"/>
                        <mxPoint x="685" y="2081" as="targetPoint"/>
                    </mxGeometry>
                </mxCell>
                <mxCell id="2" value="" style="endArrow=open;html=1;edgeStyle=orthogonalEdgeStyle;endFill=0;endSize=12;" parent="WIyWlLk6GJQsqaUBKTNV-1" source="q7pYmEnO_Y2Cruu0NZZ4-110" target="q7pYmEnO_Y2Cruu0NZZ4-15" edge="1">
                    <mxGeometry relative="1" as="geometry">
                        <mxPoint x="520" y="2366" as="sourcePoint"/>
                        <mxPoint x="680" y="2366" as="targetPoint"/>
                        <Array as="points">
                            <mxPoint x="740" y="2396"/>
                        </Array>
                    </mxGeometry>
                </mxCell>
                <mxCell id="3" value="playerOnTurn" style="edgeLabel;resizable=0;html=1;align=left;verticalAlign=bottom;" parent="2" connectable="0" vertex="1">
                    <mxGeometry x="-1" relative="1" as="geometry">
                        <mxPoint x="10" y="-4" as="offset"/>
                    </mxGeometry>
                </mxCell>
                <mxCell id="5" value="" style="endArrow=open;html=1;edgeStyle=orthogonalEdgeStyle;endSize=12;endFill=0;" parent="WIyWlLk6GJQsqaUBKTNV-1" source="q7pYmEnO_Y2Cruu0NZZ4-110" target="87" edge="1">
                    <mxGeometry relative="1" as="geometry">
                        <mxPoint x="270" y="2366" as="sourcePoint"/>
                        <mxPoint x="120" y="2336" as="targetPoint"/>
                        <Array as="points">
                            <mxPoint x="205" y="2420"/>
                        </Array>
                    </mxGeometry>
                </mxCell>
                <mxCell id="6" value="gBHandler" style="edgeLabel;resizable=0;html=1;align=left;verticalAlign=bottom;" parent="5" connectable="0" vertex="1">
                    <mxGeometry x="-1" relative="1" as="geometry">
                        <mxPoint x="-70" y="-4" as="offset"/>
                    </mxGeometry>
                </mxCell>
                <mxCell id="8" value="1" style="endArrow=open;html=1;edgeStyle=orthogonalEdgeStyle;endSize=12;endFill=0;" parent="WIyWlLk6GJQsqaUBKTNV-1" source="87" target="79" edge="1">
                    <mxGeometry x="0.5533" y="-10" relative="1" as="geometry">
                        <mxPoint x="230" y="2036" as="sourcePoint"/>
                        <mxPoint x="390" y="2036" as="targetPoint"/>
                        <Array as="points">
                            <mxPoint x="270" y="2040"/>
                            <mxPoint x="270" y="2040"/>
                        </Array>
                        <mxPoint y="1" as="offset"/>
                    </mxGeometry>
                </mxCell>
                <mxCell id="9" value="gameBoard" style="edgeLabel;resizable=0;html=1;align=left;verticalAlign=bottom;" parent="8" connectable="0" vertex="1">
                    <mxGeometry x="-1" relative="1" as="geometry">
                        <mxPoint y="-6" as="offset"/>
                    </mxGeometry>
                </mxCell>
                <mxCell id="14" value="1..9" style="endArrow=open;html=1;edgeStyle=orthogonalEdgeStyle;endSize=12;endFill=0;" parent="WIyWlLk6GJQsqaUBKTNV-1" source="87" target="79" edge="1">
                    <mxGeometry x="0.7241" y="-10" relative="1" as="geometry">
                        <mxPoint x="230" y="2036" as="sourcePoint"/>
                        <mxPoint x="390" y="2036" as="targetPoint"/>
                        <Array as="points">
                            <mxPoint x="140" y="2040"/>
                            <mxPoint x="140" y="2040"/>
                        </Array>
                        <mxPoint as="offset"/>
                    </mxGeometry>
                </mxCell>
                <mxCell id="15" value="history" style="edgeLabel;resizable=0;html=1;align=left;verticalAlign=bottom;" parent="14" connectable="0" vertex="1">
                    <mxGeometry x="-1" relative="1" as="geometry">
                        <mxPoint x="-20" y="-6" as="offset"/>
                    </mxGeometry>
                </mxCell>
                <mxCell id="20" value="Use" style="endArrow=open;endSize=12;dashed=1;html=1;edgeStyle=elbowEdgeStyle;" parent="WIyWlLk6GJQsqaUBKTNV-1" source="79" target="q7pYmEnO_Y2Cruu0NZZ4-19" edge="1">
                    <mxGeometry width="160" relative="1" as="geometry">
                        <mxPoint x="450" y="1876" as="sourcePoint"/>
                        <mxPoint x="610" y="1876" as="targetPoint"/>
                        <Array as="points">
                            <mxPoint x="580" y="1940"/>
                            <mxPoint x="560" y="1946"/>
                            <mxPoint x="380" y="1936"/>
                        </Array>
                    </mxGeometry>
                </mxCell>
                <mxCell id="21" value="Use" style="endArrow=open;endSize=12;dashed=1;html=1;edgeStyle=elbowEdgeStyle;" parent="WIyWlLk6GJQsqaUBKTNV-1" source="q7pYmEnO_Y2Cruu0NZZ4-34" target="79" edge="1">
                    <mxGeometry width="160" relative="1" as="geometry">
                        <mxPoint x="320" y="1766" as="sourcePoint"/>
                        <mxPoint x="480" y="1766" as="targetPoint"/>
                        <Array as="points">
                            <mxPoint x="210" y="1730"/>
                        </Array>
                    </mxGeometry>
                </mxCell>
                <mxCell id="37" value="" style="endArrow=open;endFill=1;endSize=12;html=1;edgeStyle=orthogonalEdgeStyle;" parent="WIyWlLk6GJQsqaUBKTNV-1" source="q7pYmEnO_Y2Cruu0NZZ4-98" target="q7pYmEnO_Y2Cruu0NZZ4-77" edge="1">
                    <mxGeometry width="160" relative="1" as="geometry">
                        <mxPoint x="710" y="1330" as="sourcePoint"/>
                        <mxPoint x="870" y="1330" as="targetPoint"/>
                        <Array as="points">
                            <mxPoint x="910" y="1280"/>
                        </Array>
                    </mxGeometry>
                </mxCell>
                <mxCell id="39" value="player" style="edgeLabel;html=1;align=center;verticalAlign=middle;resizable=0;points=[];" parent="37" vertex="1" connectable="0">
                    <mxGeometry x="-0.7609" y="1" relative="1" as="geometry">
                        <mxPoint x="-19" y="63" as="offset"/>
                    </mxGeometry>
                </mxCell>
                <mxCell id="40" value="2" style="edgeLabel;html=1;align=center;verticalAlign=middle;resizable=0;points=[];" parent="37" vertex="1" connectable="0">
                    <mxGeometry x="0.75" y="-1" relative="1" as="geometry">
                        <mxPoint x="-8" y="-9" as="offset"/>
                    </mxGeometry>
                </mxCell>
                <mxCell id="46" value="Use" style="endArrow=open;endSize=12;dashed=1;html=1;rounded=1;labelBackgroundColor=default;strokeColor=default;fontFamily=Helvetica;fontSize=11;fontColor=default;shape=connector;edgeStyle=elbowEdgeStyle;" parent="WIyWlLk6GJQsqaUBKTNV-1" source="87" target="q7pYmEnO_Y2Cruu0NZZ4-15" edge="1">
                    <mxGeometry width="160" relative="1" as="geometry">
                        <mxPoint x="340" y="2184" as="sourcePoint"/>
                        <mxPoint x="450" y="2184" as="targetPoint"/>
                        <Array as="points">
                            <mxPoint x="490" y="2116"/>
                        </Array>
                    </mxGeometry>
                </mxCell>
                <mxCell id="49" value="Use" style="endArrow=open;endSize=12;dashed=1;html=1;edgeStyle=elbowEdgeStyle;" parent="WIyWlLk6GJQsqaUBKTNV-1" source="79" target="q7pYmEnO_Y2Cruu0NZZ4-39" edge="1">
                    <mxGeometry width="160" relative="1" as="geometry">
                        <mxPoint x="300" y="1956" as="sourcePoint"/>
                        <mxPoint x="730" y="1956" as="targetPoint"/>
                        <Array as="points">
                            <mxPoint x="480" y="1850"/>
                            <mxPoint x="580" y="1840"/>
                            <mxPoint x="580" y="1780"/>
                            <mxPoint x="390" y="1946"/>
                        </Array>
                    </mxGeometry>
                </mxCell>
                <mxCell id="56" value="gameHandler" style="endArrow=open;endSize=12;html=1;edgeStyle=orthogonalEdgeStyle;" parent="WIyWlLk6GJQsqaUBKTNV-1" source="q7pYmEnO_Y2Cruu0NZZ4-71" target="q7pYmEnO_Y2Cruu0NZZ4-110" edge="1">
                    <mxGeometry x="-0.9286" y="-20" width="160" relative="1" as="geometry">
                        <mxPoint x="180" y="1370" as="sourcePoint"/>
                        <mxPoint x="110" y="1830" as="targetPoint"/>
                        <Array as="points">
                            <mxPoint x="30" y="1420"/>
                            <mxPoint x="30" y="2500"/>
                        </Array>
                        <mxPoint as="offset"/>
                    </mxGeometry>
                </mxCell>
                <mxCell id="62" value="Use" style="endArrow=open;endSize=12;dashed=1;html=1;edgeStyle=orthogonalEdgeStyle;" parent="WIyWlLk6GJQsqaUBKTNV-1" source="q7pYmEnO_Y2Cruu0NZZ4-110" target="q7pYmEnO_Y2Cruu0NZZ4-77" edge="1">
                    <mxGeometry width="160" relative="1" as="geometry">
                        <mxPoint x="300" y="2110" as="sourcePoint"/>
                        <mxPoint x="450" y="1680" as="targetPoint"/>
                        <Array as="points">
                            <mxPoint x="980" y="2500"/>
                            <mxPoint x="980" y="1240"/>
                        </Array>
                    </mxGeometry>
                </mxCell>
                <mxCell id="72" value="" style="endArrow=open;startArrow=circlePlus;endFill=0;startFill=0;endSize=8;html=1;edgeStyle=elbowEdgeStyle;" parent="WIyWlLk6GJQsqaUBKTNV-1" source="q7pYmEnO_Y2Cruu0NZZ4-39" target="q7pYmEnO_Y2Cruu0NZZ4-34" edge="1">
                    <mxGeometry width="160" relative="1" as="geometry">
                        <mxPoint x="540" y="1740" as="sourcePoint"/>
                        <mxPoint x="700" y="1740" as="targetPoint"/>
                    </mxGeometry>
                </mxCell>
                <mxCell id="73" value="8" style="edgeLabel;html=1;align=center;verticalAlign=middle;resizable=0;points=[];" parent="72" connectable="0" vertex="1">
                    <mxGeometry x="0.6102" y="-1" relative="1" as="geometry">
                        <mxPoint x="-1" y="-16" as="offset"/>
                    </mxGeometry>
                </mxCell>
                <mxCell id="74" value="" style="endArrow=block;dashed=1;endFill=0;endSize=12;html=1;edgeStyle=elbowEdgeStyle;" edge="1" parent="WIyWlLk6GJQsqaUBKTNV-1" source="q7pYmEnO_Y2Cruu0NZZ4-71" target="q7pYmEnO_Y2Cruu0NZZ4-77">
                    <mxGeometry width="160" relative="1" as="geometry">
                        <mxPoint x="390" y="1450" as="sourcePoint"/>
                        <mxPoint x="550" y="1450" as="targetPoint"/>
                        <Array as="points">
                            <mxPoint x="460" y="1458"/>
                        </Array>
                    </mxGeometry>
                </mxCell>
                <mxCell id="75" value="" style="endArrow=block;dashed=1;endFill=0;endSize=12;html=1;edgeStyle=elbowEdgeStyle;" edge="1" parent="WIyWlLk6GJQsqaUBKTNV-1" source="q7pYmEnO_Y2Cruu0NZZ4-80" target="q7pYmEnO_Y2Cruu0NZZ4-77">
                    <mxGeometry width="160" relative="1" as="geometry">
                        <mxPoint x="390" y="1450" as="sourcePoint"/>
                        <mxPoint x="550" y="1450" as="targetPoint"/>
                        <Array as="points">
                            <mxPoint x="490" y="1458"/>
                        </Array>
                    </mxGeometry>
                </mxCell>
                <mxCell id="78" value="Use" style="endArrow=open;endSize=12;dashed=1;html=1;edgeStyle=elbowEdgeStyle;" edge="1" parent="WIyWlLk6GJQsqaUBKTNV-1" source="q7pYmEnO_Y2Cruu0NZZ4-98" target="q7pYmEnO_Y2Cruu0NZZ4-15">
                    <mxGeometry width="160" relative="1" as="geometry">
                        <mxPoint x="870" y="1840" as="sourcePoint"/>
                        <mxPoint x="1030" y="1840" as="targetPoint"/>
                        <Array as="points">
                            <mxPoint x="870" y="1890"/>
                            <mxPoint x="940" y="1890"/>
                            <mxPoint x="950" y="1940"/>
                        </Array>
                    </mxGeometry>
                </mxCell>
                <mxCell id="79" value="GameBoard" style="swimlane;fontStyle=1;align=center;verticalAlign=top;childLayout=stackLayout;horizontal=1;startSize=26;horizontalStack=0;resizeParent=1;resizeParentMax=0;resizeLast=0;collapsible=1;marginBottom=0;fontSize=12;" vertex="1" parent="WIyWlLk6GJQsqaUBKTNV-1">
                    <mxGeometry x="105" y="1810" width="200" height="164" as="geometry"/>
                </mxCell>
                <mxCell id="80" value="code:number" style="text;strokeColor=none;fillColor=none;align=left;verticalAlign=top;spacingLeft=4;spacingRight=4;overflow=hidden;rotatable=0;points=[[0,0.5],[1,0.5]];portConstraint=eastwest;fontSize=12;" vertex="1" parent="79">
                    <mxGeometry y="26" width="200" height="26" as="geometry"/>
                </mxCell>
                <mxCell id="83" value="normalForm: number" style="text;strokeColor=none;fillColor=none;align=left;verticalAlign=top;spacingLeft=4;spacingRight=4;overflow=hidden;rotatable=0;points=[[0,0.5],[1,0.5]];portConstraint=eastwest;fontSize=12;" vertex="1" parent="79">
                    <mxGeometry y="52" width="200" height="26" as="geometry"/>
                </mxCell>
                <mxCell id="81" value="" style="line;strokeWidth=1;fillColor=none;align=left;verticalAlign=middle;spacingTop=-1;spacingLeft=3;spacingRight=3;rotatable=0;labelPosition=right;points=[];portConstraint=eastwest;strokeColor=inherit;fontSize=12;" vertex="1" parent="79">
                    <mxGeometry y="78" width="200" height="8" as="geometry"/>
                </mxCell>
                <mxCell id="84" value="calculateCode([[number]]): number" style="text;strokeColor=none;fillColor=none;align=left;verticalAlign=top;spacingLeft=4;spacingRight=4;overflow=hidden;rotatable=0;points=[[0,0.5],[1,0.5]];portConstraint=eastwest;fontSize=12;" vertex="1" parent="79">
                    <mxGeometry y="86" width="200" height="26" as="geometry"/>
                </mxCell>
                <mxCell id="82" value="clone(): [[FieldType]]" style="text;strokeColor=none;fillColor=none;align=left;verticalAlign=top;spacingLeft=4;spacingRight=4;overflow=hidden;rotatable=0;points=[[0,0.5],[1,0.5]];portConstraint=eastwest;fontSize=12;" vertex="1" parent="79">
                    <mxGeometry y="112" width="200" height="26" as="geometry"/>
                </mxCell>
                <mxCell id="85" value="toString(): String" style="text;strokeColor=none;fillColor=none;align=left;verticalAlign=top;spacingLeft=4;spacingRight=4;overflow=hidden;rotatable=0;points=[[0,0.5],[1,0.5]];portConstraint=eastwest;fontSize=12;" vertex="1" parent="79">
                    <mxGeometry y="138" width="200" height="26" as="geometry"/>
                </mxCell>
                <mxCell id="87" value="GameBoardHandler" style="swimlane;fontStyle=1;align=center;verticalAlign=top;childLayout=stackLayout;horizontal=1;startSize=26;horizontalStack=0;resizeParent=1;resizeParentMax=0;resizeLast=0;collapsible=1;marginBottom=0;fontSize=12;" vertex="1" parent="WIyWlLk6GJQsqaUBKTNV-1">
                    <mxGeometry x="105" y="2105" width="220" height="182" as="geometry"/>
                </mxCell>
                <mxCell id="89" value="" style="line;strokeWidth=1;fillColor=none;align=left;verticalAlign=middle;spacingTop=-1;spacingLeft=3;spacingRight=3;rotatable=0;labelPosition=right;points=[];portConstraint=eastwest;strokeColor=inherit;fontSize=12;" vertex="1" parent="87">
                    <mxGeometry y="26" width="220" height="8" as="geometry"/>
                </mxCell>
                <mxCell id="q7pYmEnO_Y2Cruu0NZZ4-11" value="move(number, number, PlayerNumber): void" style="text;align=left;verticalAlign=top;spacingLeft=4;spacingRight=4;overflow=hidden;rotatable=0;points=[[0,0.5],[1,0.5]];portConstraint=eastwest;fontStyle=0;rounded=0;" parent="87" vertex="1">
                    <mxGeometry y="34" width="220" height="26" as="geometry"/>
                </mxCell>
                <mxCell id="q7pYmEnO_Y2Cruu0NZZ4-12" value="addPiece(number, number, GameBoard, &#10;PlayerNumber): GameBoard" style="text;strokeColor=none;fillColor=none;align=left;verticalAlign=top;spacingLeft=4;spacingRight=4;overflow=hidden;rotatable=0;points=[[0,0.5],[1,0.5]];portConstraint=eastwest;rounded=0;" parent="87" vertex="1">
                    <mxGeometry y="60" width="220" height="38" as="geometry"/>
                </mxCell>
                <mxCell id="48" value="getPossibleNextPositions(PlayerNumber,&#10; GameBoard): [GameBoard]" style="text;strokeColor=none;fillColor=none;align=left;verticalAlign=top;spacingLeft=4;spacingRight=4;overflow=hidden;rotatable=0;points=[[0,0.5],[1,0.5]];portConstraint=eastwest;" parent="87" vertex="1">
                    <mxGeometry y="98" width="220" height="32" as="geometry"/>
                </mxCell>
                <mxCell id="q7pYmEnO_Y2Cruu0NZZ4-13" value="resetGameBoard(): void" style="text;strokeColor=none;fillColor=none;align=left;verticalAlign=top;spacingLeft=4;spacingRight=4;overflow=hidden;rotatable=0;points=[[0,0.5],[1,0.5]];portConstraint=eastwest;rounded=0;" parent="87" vertex="1">
                    <mxGeometry y="130" width="220" height="26" as="geometry"/>
                </mxCell>
                <mxCell id="q7pYmEnO_Y2Cruu0NZZ4-14" value="calculateWinner(): WinnerStatus" style="text;strokeColor=none;fillColor=none;align=left;verticalAlign=top;spacingLeft=4;spacingRight=4;overflow=hidden;rotatable=0;points=[[0,0.5],[1,0.5]];portConstraint=eastwest;fontFamily=Helvetica;fontSize=12;fontColor=default;rounded=0;" parent="87" vertex="1">
                    <mxGeometry y="156" width="220" height="26" as="geometry"/>
                </mxCell>
            </root>
        </mxGraphModel>
    </diagram>
</mxfile>